<svg viewBox="0 0 1134 1308" xmlns="http://www.w3.org/2000/svg" fill="#FFF">
    <path d="M567 1307.169a6.05 6.05 0 0 1-3.033-.813L3.857 982.975a6.063 6.063 0 0 1-3.034-5.254V330.966a6.063 6.063 0 0 1 3.034-5.254L563.967 2.331a6.056 6.056 0 0 1 6.067 0l560.111 323.381a6.064 6.064 0 0 1 3.033 5.254v646.756a6.064 6.064 0 0 1-3.033 5.254l-560.111 323.381a6.063 6.063 0 0 1-3.034.812zM12.957 974.22L567 1294.097l554.043-319.877V334.468L567 14.591 12.957 334.468V974.22z"/>
    <path d="M556.546 970.968L286.971 504.054 17.397 970.968h539.15zM297.398 485.994h539.203L567 19.032 297.398 485.994zm549.628 18.057L577.454 970.968h539.148L847.026 504.051zm-549.464-5.923L567 964.806l269.436-466.678H297.562zm275.505 484.975v313.668a6.066 6.066 0 0 1-12.134 0V983.103H6.889a6.07 6.07 0 0 1-5.254-9.101l277.003-479.783L3.865 336.226a6.066 6.066 0 0 1-2.235-8.283 6.062 6.062 0 0 1 8.284-2.236l274.79 158.006L561.745 3.865a6.067 6.067 0 0 1 10.508 0l277.04 479.847 274.792-158.006a6.067 6.067 0 1 1 6.049 10.519L855.359 494.218l277.005 479.784a6.064 6.064 0 0 1 0 6.066 6.073 6.073 0 0 1-5.255 3.035H573.067z"/>
    <path d="M846.292 818.271H287.705L8.103 979.823a2.42 2.42 0 0 1-3.315-.889 2.425 2.425 0 0 1 .886-3.314l279.603-161.553 279.296-483.753V7.585a2.425 2.425 0 0 1 4.143-1.716c.455.455.71 1.073.71 1.716v322.73l279.293 483.751 279.604 161.554a2.425 2.425 0 0 1 .887 3.314 2.415 2.415 0 0 1-2.103 1.215c-.412 0-.828-.105-1.211-.326L846.292 818.271zm-555.036-4.854H842.74L567 335.819 291.256 813.417z"/>
    <path d="M1127.109 333.394H6.889a2.428 2.428 0 0 1 0-4.856h1120.22a2.427 2.427 0 0 1 2.428 2.428 2.427 2.427 0 0 1-2.428 2.428z"/>
    <path d="M567.002 1303.53c-.868 0-1.67-.463-2.104-1.215L4.787 332.179a2.426 2.426 0 0 1 .889-3.314 2.422 2.422 0 0 1 3.316.889l560.11 970.137a2.425 2.425 0 0 1-2.1 3.639z"/>
    <path d="M566.886 1303.53a2.425 2.425 0 0 1-2.1-3.64l560.11-970.137a2.427 2.427 0 0 1 4.205 2.425L568.99 1302.315a2.427 2.427 0 0 1-2.104 1.215z"/>
</svg>
